<svg width="450" height="282" viewBox="0 0 450 282" fill="none" xmlns="http://www.w3.org/2000/svg">
<path fill-rule="evenodd" clip-rule="evenodd" d="M377.214 2L361.329 20.9312C356.004 27.2773 356.831 36.7386 363.178 42.0637C369.524 47.3887 378.985 46.5609 384.31 40.2148L416.376 2H377.214Z" fill="#1E2C56"/>
<path fill-rule="evenodd" clip-rule="evenodd" d="M273.004 2C269.211 8.22412 270.428 16.4539 276.183 21.2825C282.529 26.6074 291.99 25.7797 297.315 19.4336C301.558 14.3774 301.895 7.34363 298.647 2H273.004Z" fill="#1E2C56"/>
<path fill-rule="evenodd" clip-rule="evenodd" d="M220.565 2L197.411 29.5936C192.086 35.9398 192.914 45.4011 199.26 50.7262C205.606 56.0511 215.067 55.2234 220.393 48.8773L259.727 2H220.565Z" fill="#1E2C56"/>
<path fill-rule="evenodd" clip-rule="evenodd" d="M168.349 2L142.343 32.9918C137.018 39.338 137.846 48.7993 144.192 54.1244C150.538 59.4493 160 58.6216 165.325 52.2755L207.511 2H168.349Z" fill="#1E2C56"/>
<path fill-rule="evenodd" clip-rule="evenodd" d="M116.132 2L85.9902 37.9221C80.6651 44.2683 81.4929 53.7296 87.8391 59.0547C94.1851 64.3796 103.646 63.5519 108.972 57.2058L153.967 3.58264C154.394 3.07385 154.781 2.54504 155.129 2H116.132Z" fill="#1E2C56"/>
<rect x="193.985" y="95.9055" width="100" height="30" rx="15" transform="rotate(-50 193.985 95.9055)" fill="#1E2C56"/>
<rect x="123.279" y="180.17" width="100" height="30" rx="15" transform="rotate(-50 123.279 180.17)" fill="#1E2C56"/>
<rect x="255.269" y="147.328" width="100" height="30" rx="15" transform="rotate(-50 255.269 147.328)" fill="#1E2C56"/>
<rect x="158.851" y="262.235" width="100" height="30" rx="15" transform="rotate(-50 158.851 262.235)" fill="#1E2C56"/>
<circle cx="347.108" cy="61.2147" r="15" transform="rotate(-50 347.108 61.2147)" fill="#1E2C56"/>
<circle cx="250.69" cy="176.121" r="15" transform="rotate(-50 250.69 176.121)" fill="#1E2C56"/>
<rect x="239.63" y="228.195" width="100" height="30" rx="15" transform="rotate(-50 239.63 228.195)" fill="#1E2C56"/>
<rect x="310.337" y="143.93" width="100" height="30" rx="15" transform="rotate(-50 310.337 143.93)" fill="#1E2C56"/>
<circle cx="235.051" cy="256.988" r="15" transform="rotate(-50 235.051 256.988)" fill="#1E2C56"/>
<rect x="198.916" y="152.259" width="100" height="30" rx="15" transform="rotate(-50 198.916 152.259)" fill="#1E2C56"/>
<circle cx="290.755" cy="66.145" r="15" transform="rotate(-50 290.755 66.145)" fill="#1E2C56"/>
<circle cx="194.336" cy="181.052" r="15" transform="rotate(-50 194.336 181.052)" fill="#1E2C56"/>
<circle cx="427.887" cy="27.1748" r="15" transform="rotate(-50 427.887 27.1748)" fill="#1E2C56"/>
<rect x="0.711548" y="77.3245" width="100" height="30" rx="15" transform="rotate(-50 0.711548 77.3245)" fill="#1E2C56"/>
<rect x="36.2836" y="159.389" width="100" height="30" rx="15" transform="rotate(-50 36.2836 159.389)" fill="#1E2C56"/>
<circle cx="128.123" cy="73.2754" r="15" transform="rotate(-50 128.123 73.2754)" fill="#1E2C56"/>
<rect x="117.063" y="125.349" width="100" height="30" rx="15" transform="rotate(-50 117.063 125.349)" fill="#1E2C56"/>
<circle cx="112.484" cy="154.142" r="15" transform="rotate(-50 112.484 154.142)" fill="#1E2C56"/>
<circle cx="71.7694" cy="78.2057" r="15" transform="rotate(-50 71.7694 78.2057)" fill="#1E2C56"/>
</svg>